<svg xmlns="http://www.w3.org/2000/svg" width="50" height="50" viewBox="0 0 50 50">
  <path id="hand-rock-regular" d="M39.928,37.252c-2.188-3.783-6.456-4.718-9.65-2.633a6.654,6.654,0,0,0-10.579,0C15.093,31.6,9.083,35.181,8.891,41.4,4.379,40.193,0,44.054,0,49.347V55.7a13.511,13.511,0,0,0,3.826,9.557l9.542,9.5c.415.413.3.622.3,3.672A3.371,3.371,0,0,0,16.8,82H41.406a3.371,3.371,0,0,0,3.125-3.571c0-2.624-.1-3.431.389-4.729L49.1,62.578A14.078,14.078,0,0,0,50,57.6V44.831C50,38.934,44.7,34.936,39.928,37.252ZM45.313,57.6a8.091,8.091,0,0,1-.516,2.859L40.614,71.584a12.086,12.086,0,0,0-.77,4.269v.79H18.359V75.5a6.756,6.756,0,0,0-1.913-4.779L6.9,61.221A7.8,7.8,0,0,1,4.688,55.7V49.347c0-3.706,5.078-3.743,5.078.076v4.6a1.9,1.9,0,0,0,.536,1.347l.684.68a1.412,1.412,0,0,0,1.673.279,1.816,1.816,0,0,0,.915-1.625V41.694c0-3.694,5.078-3.764,5.078.076v2.986a1.685,1.685,0,0,0,1.563,1.786H20.9a1.685,1.685,0,0,0,1.563-1.786V40.163c0-3.7,5.078-3.758,5.078.076v4.516A1.685,1.685,0,0,0,29.1,46.541h.684a1.685,1.685,0,0,0,1.563-1.786V41.694c0-3.686,5.078-3.77,5.078.076v2.986a1.685,1.685,0,0,0,1.563,1.786h.684a1.685,1.685,0,0,0,1.563-1.786c0-3.7,5.078-3.751,5.078.076Z" transform="translate(0 -32)"/>
</svg>
