<svg xmlns="http://www.w3.org/2000/svg" width="50" height="50" viewBox="0 0 50 50">
  <path id="hand-paper-regular" d="M41.582,11V9.943c0-4.259-4.522-7.489-9.268-6.4-2.86-4.834-10.5-4.634-13.168.073-4.607-1.031-9.2,2.044-9.2,6.346V22.278a8.179,8.179,0,0,0-6.929.866,6.063,6.063,0,0,0-1.624,9.1L14.786,48.688A3.75,3.75,0,0,0,17.695,50H42.572a3.5,3.5,0,0,0,3.48-2.423l3.369-12.789a17.519,17.519,0,0,0,.58-4.46V17.48C50,13.513,46.036,10.45,41.582,11Zm3.061,19.328a13.385,13.385,0,0,1-.443,3.407l-3.05,11.577H18.615L5.758,29.521c-1.611-1.979,1.677-4.177,3.281-2.208l3.028,3.719c1,1.233,3.24.614,3.24-.907V9.961c0-2.5,4.082-2.423,4.082.067V25a1.685,1.685,0,0,0,1.786,1.562h.765A1.685,1.685,0,0,0,23.725,25V6.543c0-2.506,4.082-2.423,4.082.067V25a1.685,1.685,0,0,0,1.786,1.562h.765A1.685,1.685,0,0,0,32.143,25V9.875c0-2.507,4.081-2.423,4.081.067V25a1.685,1.685,0,0,0,1.786,1.562h.765A1.685,1.685,0,0,0,40.561,25V17.548c0-2.563,4.081-2.5,4.081-.067V30.328Z" transform="translate(0 0)"/>
</svg>
