<svg xmlns="http://www.w3.org/2000/svg" width="50" height="50" viewBox="0 0 50 50">
  <path id="hand-scissors-regular" d="M25,82h6.836a5.833,5.833,0,0,0,1.485-.193l11.621-3.061A7.273,7.273,0,0,0,50,71.539V48.582a7.623,7.623,0,0,0-3.321-6.439l-9.57-6.122c-3.36-2.15-6.569-.65-9.006,2.76L13.95,32.559c-3.7-1.627-7.872.416-9.34,4.6-1.474,4.2.355,8.97,4.1,10.615l7.7,2.085-9.18-1.02C3.242,48.837,0,52.5,0,57s3.242,8.163,7.227,8.163h8.558a7.785,7.785,0,0,0,2.963,7.255C17.447,77.171,20.61,82,25,82Zm0-5.359c-2.457,0-2.453-4.081,0-4.081a1.685,1.685,0,0,0,1.563-1.786v-.765A1.685,1.685,0,0,0,25,68.223H22.266c-2.457,0-2.453-4.081,0-4.081H25a1.685,1.685,0,0,0,1.563-1.786v-.765A1.685,1.685,0,0,0,25,59.806H7.227c-3.362,0-3.357-5.612,0-5.612H25a1.685,1.685,0,0,0,1.563-1.786v-1.3a1.8,1.8,0,0,0-1-1.667L10.39,42.771c-3.081-1.355-1.312-6.616,1.877-5.214L28.531,44.71a1.442,1.442,0,0,0,1.771-.537L32.428,41.2a1.753,1.753,0,0,1,2.391-.5l9.57,6.122a2.094,2.094,0,0,1,.923,1.764V71.539a2.006,2.006,0,0,1-1.423,1.985L32.268,76.585a1.7,1.7,0,0,1-.432.056H25Z" transform="translate(0 -32)"/>
</svg>
